<svg xmlns:svg="http://www.w3.org/2000/svg" xmlns="http://www.w3.org/2000/svg" viewBox="0 0 24 24" version="1.1">
    <path fill="#e53f3f" d="m10 7.7c0-1.5-0.5-2.2-2-2.2-1.5 0-2 0.8-2 2.3l0 0.8-1 0c-1.6 0-2 0.8-2 2.2l0 6c0 1.5 0.4 1.8 2 1.8L19 18.5c1.6 0 2-0.3 2-1.8l0-6C21 9.2 20.6 8.5 19 8.5l-1 0 0-0.7C18 6.3 17.5 5.5 16 5.5 14.4 5.5 14 6.2 14 7.7l0 0.8-4 0 0-0.7 0 0" />
    <path fill="#ffffff" d="m7.5 10.9 0 5.4 3.9 0 0-3.3 1.8 0 0.5 0 0 3.3 0.3 0 0.9 0 0 0 0.1 0 0.5 0 0.1 0 0.8 0 0.1 0 0-5.4-0.1 0-0.8 0-0.1 0-0.5 0-0.1 0-1.7 0-5.7 0z" />
</svg>
